<svg width="128" height="128" viewBox="0 0 128 128" fill="none" xmlns="http://www.w3.org/2000/svg">
<path d="M126.105 70.1388C127.258 71.9174 127.258 74.2076 126.105 75.9863L108.089 103.777C107.098 105.306 105.4 106.228 103.579 106.228H66.4213C64.5996 106.228 62.9019 105.306 61.911 103.777L43.8953 75.9863C42.7423 74.2076 42.7423 71.9174 43.8953 70.1387L61.911 42.3477C62.9019 40.8191 64.5996 39.8965 66.4213 39.8965H103.579C105.4 39.8965 107.098 40.8191 108.089 42.3477L126.105 70.1388Z" fill="#C2440D"/>
<path d="M78.7159 40.8125L85.0988 33.0859L90.1378 37.1172L94.8409 31.4062" stroke="#C2440D" stroke-width="5" stroke-linecap="round" stroke-linejoin="round"/>
<path d="M101.797 52.2344H67.5312C63.8206 52.2344 60.8125 55.2425 60.8125 58.9531V87.1719C60.8125 90.8825 63.8206 93.8906 67.5312 93.8906H101.797C105.508 93.8906 108.516 90.8825 108.516 87.1719V58.9531C108.516 55.2425 105.508 52.2344 101.797 52.2344Z" fill="#F1F1EF"/>
<path d="M98.5068 31.258C100.016 30.4248 100.565 28.5255 99.7318 27.0158C98.8986 25.5061 96.9993 24.9576 95.4896 25.7908C93.9798 26.624 93.4314 28.5233 94.2646 30.033C95.0978 31.5427 96.9971 32.0911 98.5068 31.258Z" stroke="#C2440D" stroke-width="5"/>
<path d="M75.5938 73.0625C77.4491 73.0625 78.9531 71.5585 78.9531 69.7031C78.9531 67.8478 77.4491 66.3438 75.5938 66.3438C73.7384 66.3438 72.2344 67.8478 72.2344 69.7031C72.2344 71.5585 73.7384 73.0625 75.5938 73.0625Z" fill="#C2440D"/>
<path d="M94.4062 73.0625C96.2616 73.0625 97.7656 71.5585 97.7656 69.7031C97.7656 67.8478 96.2616 66.3438 94.4062 66.3438C92.5509 66.3438 91.0469 67.8478 91.0469 69.7031C91.0469 71.5585 92.5509 73.0625 94.4062 73.0625Z" fill="#C2440D"/>
<path d="M77.6094 78.7734C81.6406 81.4609 88.3594 81.4609 92.3906 78.7734" stroke="#C2440D" stroke-width="5" stroke-linecap="round"/>
<path d="M49.5517 75.0746C48.6595 73.8816 48.6595 72.2434 49.5517 71.0504L51.5715 68.35C53.5065 65.7629 57.6211 67.1313 57.6211 70.362V75.763C57.6211 78.9937 53.5065 80.3622 51.5715 77.7751L49.5517 75.0746Z" fill="#F1F1EF"/>
<path d="M119.776 75.0746C120.668 73.8816 120.668 72.2434 119.776 71.0504L117.757 68.35C115.822 65.7629 111.707 67.1313 111.707 70.362V75.763C111.707 78.9937 115.822 80.3622 117.757 77.7751L119.776 75.0746Z" fill="#F1F1EF"/>
<path d="M110.994 69.9375C112.214 71.8196 112.214 74.243 110.994 76.125L91.9314 105.532C90.8829 107.149 89.0865 108.125 87.1589 108.125H47.8411C45.9135 108.125 44.1171 107.149 43.0686 105.532L24.0055 76.125C22.7855 74.243 22.7855 71.8196 24.0055 69.9375L43.0686 40.5307C44.1171 38.9132 45.9135 37.937 47.8411 37.937H87.1589C89.0865 37.937 90.8829 38.9132 91.9314 40.5307L110.994 69.9375Z" fill="#EFAE4E"/>
<path d="M60.8506 38.9062L67.6045 30.7305L72.9365 34.9961L77.9131 28.9531" stroke="#EFAE4E" stroke-width="5" stroke-linecap="round" stroke-linejoin="round"/>
<path d="M85.2734 50.9922H49.0156C45.0892 50.9922 41.9062 54.1752 41.9062 58.1016V87.9609C41.9062 91.8873 45.0892 95.0703 49.0156 95.0703H85.2734C89.1998 95.0703 92.3828 91.8873 92.3828 87.9609V58.1016C92.3828 54.1752 89.1998 50.9922 85.2734 50.9922Z" fill="#F1F1EF"/>
<path d="M81.7921 28.7962C83.3895 27.9146 83.9699 25.9049 83.0883 24.3074C82.2066 22.7099 80.1969 22.1296 78.5994 23.0112C77.0019 23.8928 76.4216 25.9025 77.3032 27.5C78.1848 29.0975 80.1946 29.6778 81.7921 28.7962Z" stroke="#EFAE4E" stroke-width="5"/>
<path d="M57.5469 73.0312C59.5101 73.0312 61.1016 71.4398 61.1016 69.4766C61.1016 67.5134 59.5101 65.9219 57.5469 65.9219C55.5837 65.9219 53.9922 67.5134 53.9922 69.4766C53.9922 71.4398 55.5837 73.0312 57.5469 73.0312Z" fill="#EFAE4E"/>
<path d="M77.4531 73.0312C79.4163 73.0312 81.0078 71.4398 81.0078 69.4766C81.0078 67.5134 79.4163 65.9219 77.4531 65.9219C75.4899 65.9219 73.8984 67.5134 73.8984 69.4766C73.8984 71.4398 75.4899 73.0312 77.4531 73.0312Z" fill="#EFAE4E"/>
<path d="M59.6797 79.0742C63.9453 81.918 71.0547 81.918 75.3203 79.0742" stroke="#EFAE4E" stroke-width="5" stroke-linecap="round"/>
<path d="M29.9908 75.1603C29.0467 73.898 29.0467 72.1646 29.9908 70.9022L32.128 68.0447C34.1755 65.3072 38.5293 66.7552 38.5293 70.1738V75.8888C38.5293 79.3073 34.1755 80.7553 32.128 78.0178L29.9908 75.1603Z" fill="#F1F1EF"/>
<path d="M104.298 75.1603C105.242 73.898 105.242 72.1646 104.298 70.9022L102.161 68.0447C100.114 65.3072 95.7598 66.7552 95.7598 70.1738V75.8888C95.7598 79.3073 100.114 80.7553 102.161 78.0178L104.298 75.1603Z" fill="#F1F1EF"/>
<path d="M93.8843 69.7363C95.1713 71.7218 95.1713 74.2783 93.8843 76.2638L73.7738 107.286C72.6677 108.993 70.7726 110.022 68.7391 110.022H27.2609C25.2275 110.022 23.3324 108.993 22.2263 107.286L2.11574 76.2638C0.828647 74.2783 0.828647 71.7218 2.11574 69.7362L22.2263 38.7137C23.3324 37.0073 25.2275 35.9774 27.2609 35.9774H68.7391C70.7726 35.9774 72.6677 37.0073 73.7738 38.7137L93.8843 69.7363Z" fill="#508CA1"/>
<path d="M40.9853 37L48.1103 28.375L53.7353 32.875L58.9853 26.5" stroke="#508CA1" stroke-width="5" stroke-linecap="round" stroke-linejoin="round"/>
<path d="M66.75 49.75H28.5C24.3579 49.75 21 53.1079 21 57.25V88.75C21 92.8921 24.3579 96.25 28.5 96.25H66.75C70.8921 96.25 74.25 92.8921 74.25 88.75V57.25C74.25 53.1079 70.8921 49.75 66.75 49.75Z" fill="#F1F1EF"/>
<path d="M63.0773 26.3345C64.7626 25.4044 65.3748 23.2843 64.4447 21.599C63.5147 19.9137 61.3945 19.3015 59.7092 20.2316C58.024 21.1616 57.4118 23.2818 58.3418 24.9671C59.2719 26.6523 61.392 27.2645 63.0773 26.3345Z" stroke="#508CA1" stroke-width="5"/>
<path d="M37.5 73C39.5711 73 41.25 71.3211 41.25 69.25C41.25 67.1789 39.5711 65.5 37.5 65.5C35.4289 65.5 33.75 67.1789 33.75 69.25C33.75 71.3211 35.4289 73 37.5 73Z" fill="#508CA1"/>
<path d="M58.5 73C60.5711 73 62.25 71.3211 62.25 69.25C62.25 67.1789 60.5711 65.5 58.5 65.5C56.4289 65.5 54.75 67.1789 54.75 69.25C54.75 71.3211 56.4289 73 58.5 73Z" fill="#508CA1"/>
<path d="M39.75 79.375C44.25 82.375 51.75 82.375 56.25 79.375" stroke="#508CA1" stroke-width="5" stroke-linecap="round"/>
<path d="M8.42984 75.246C7.43383 73.9143 7.43383 72.0857 8.42984 70.754L10.6845 67.7395C12.8445 64.8515 17.4375 66.3791 17.4375 69.9855V76.0145C17.4375 79.6209 12.8445 81.1484 10.6845 78.2606L8.42984 75.246Z" fill="#F1F1EF"/>
<path d="M86.82 75.246C87.816 73.9143 87.816 72.0857 86.82 70.754L84.5655 67.7395C82.4055 64.8515 77.8125 66.3791 77.8125 69.9855V76.0145C77.8125 79.6209 82.4055 81.1484 84.5655 78.2606L86.82 75.246Z" fill="#F1F1EF"/>
</svg>
