<svg width="128" height="128" viewBox="0 0 128 128" fill="none" xmlns="http://www.w3.org/2000/svg">
<g clip-path="url(#clip0_0_1)">
<path d="M125.179 71.6483C126.895 74.2957 126.895 77.7043 125.179 80.3517L98.365 121.715C96.8902 123.99 94.3634 125.363 91.6521 125.363L36.3479 125.363C33.6366 125.363 31.1098 123.99 29.635 121.715L2.82098 80.3517C1.10485 77.7043 1.10485 74.2957 2.82098 71.6483L29.635 30.2849C31.1098 28.0098 33.6366 26.6365 36.3479 26.6365L91.6521 26.6365C94.3634 26.6365 96.8902 28.0098 98.365 30.2849L125.179 71.6483Z" fill="#EFAE4E"/>
<path d="M54.647 28L64.147 16.5L71.647 22.5L78.647 14" stroke="#EFAE4E" stroke-width="5" stroke-linecap="round" stroke-linejoin="round"/>
<rect x="28" y="45" width="71" height="62" rx="10" fill="white"/>
<circle cx="81.8577" cy="9.7107" r="4.64705" transform="rotate(-28.8934 81.8577 9.7107)" stroke="#EFAE4E" stroke-width="5"/>
<circle cx="50" cy="71" r="5" fill="#EFAE4E"/>
<circle cx="78" cy="71" r="5" fill="#EFAE4E"/>
<path d="M53 84.5C59 88.5 69 88.5 75 84.5" stroke="#EFAE4E" stroke-width="5" stroke-linecap="round"/>
<path d="M11.2398 78.9947C9.91179 77.2191 9.91179 74.7809 11.2398 73.0053L14.246 68.9859C17.126 65.1354 23.25 67.1722 23.25 71.9806L23.25 80.0194C23.25 84.8278 17.126 86.8646 14.246 83.0141L11.2398 78.9947Z" fill="white"/>
<path d="M115.76 78.9947C117.088 77.2191 117.088 74.7809 115.76 73.0053L112.754 68.9859C109.874 65.1354 103.75 67.1722 103.75 71.9806L103.75 80.0194C103.75 84.8278 109.874 86.8646 112.754 83.0141L115.76 78.9947Z" fill="white"/>
</g>
<defs>
<clipPath id="clip0_0_1">
<rect width="128" height="128" fill="white"/>
</clipPath>
</defs>
</svg>
