<svg width="128" height="128" viewBox="0 0 128 128" fill="none" xmlns="http://www.w3.org/2000/svg">
<g clip-path="url(#clip0_0_1)">
<path d="M60 2.3094C62.4752 0.880338 65.5248 0.880339 68 2.3094L115.426 29.6906C117.901 31.1197 119.426 33.7607 119.426 36.6188V91.3812C119.426 94.2393 117.901 96.8803 115.426 98.3094L68 125.691C65.5248 127.12 62.4752 127.12 60 125.691L12.5744 98.3094C10.0992 96.8803 8.57438 94.2393 8.57438 91.3812V36.6188C8.57438 33.7607 10.0992 31.1197 12.5744 29.6906L60 2.3094Z" fill="#EBCBC1"/>
<path d="M84.31 17.34C85.034 16.8867 85.9662 16.8867 86.6902 17.34L98.0023 24.4227C98.6245 24.8123 99 25.4797 99 26.1959L99 40.8041C99 41.5203 98.6245 42.1877 98.0023 42.5773L86.6902 49.66C85.9662 50.1133 85.034 50.1133 84.3099 49.66L72.9977 42.5773C72.3755 42.1877 72 41.5203 72 40.8041L72 26.1959C72 25.4797 72.3755 24.8123 72.9977 24.4227L84.31 17.34Z" fill="#C2440D"/>
<path d="M87.9574 19.4224C88.8959 18.8592 90.1043 18.8592 91.0428 19.4224L105.707 28.2221C106.513 28.7061 107 29.5354 107 30.4252L107 48.5748C107 49.4646 106.513 50.2938 105.707 50.7778L91.0428 59.5776C90.1043 60.1408 88.8959 60.1408 87.9573 59.5776L73.2934 50.7778C72.4868 50.2938 72 49.4646 72 48.5748L72 30.4252C72 29.5354 72.4868 28.7061 73.2934 28.2221L87.9574 19.4224Z" fill="#354654"/>
<path d="M93.5218 103.857C93.5523 104.71 93.0862 105.518 92.3317 105.918L80.5418 112.173C79.8933 112.517 79.1275 112.509 78.5073 112.151L65.8562 104.847C65.236 104.489 64.8457 103.83 64.8194 103.096L64.3417 89.7581C64.3111 88.9044 64.7772 88.0971 65.5318 87.6967L77.3217 81.4415C77.9702 81.0974 78.736 81.1059 79.3562 81.464L92.0073 88.7681C92.6275 89.1262 93.0178 89.7851 93.0441 90.5188L93.5218 103.857Z" fill="#C2440D"/>
<path d="M89.6626 106.108C89.681 107.203 89.0768 108.249 88.1199 108.78L73.1671 117.08C72.3447 117.536 71.3831 117.543 70.6126 117.098L54.8945 108.023C54.1239 107.579 53.6492 106.742 53.6333 105.802L53.3444 88.7028C53.3259 87.6084 53.9301 86.5619 54.8871 86.0307L69.8399 77.7312C70.6624 77.2747 71.6239 77.2677 72.3945 77.7126L88.1126 86.7874C88.8831 87.2323 89.3579 88.0685 89.3737 89.009L89.6626 106.108Z" fill="#354654"/>
<path d="M60.7511 66.4358C61.9462 65.7192 63.485 65.7192 64.6801 66.4358L83.3532 77.6328C84.3802 78.2487 85 79.3038 85 80.436L85 103.53C85 104.662 84.3802 105.717 83.3532 106.333L64.6801 117.53C63.485 118.247 61.9462 118.247 60.7511 117.53L42.078 106.333C41.0509 105.717 40.431 104.662 40.431 103.53L40.431 80.436C40.431 79.3038 41.0509 78.2487 42.078 77.6328L60.7511 66.4358Z" fill="#C2440D"/>
<path d="M49.3359 80.3672L49.3359 103.078C49.3359 105.538 51.2597 107.531 53.6328 107.531L71.6797 107.531C74.0528 107.531 75.9766 105.538 75.9766 103.078L75.9766 80.3672C75.9766 77.9078 74.0528 75.9141 71.6797 75.9141L53.6328 75.9141C51.2597 75.9141 49.3359 77.9078 49.3359 80.3672Z" fill="#F1F1EF"/>
<path d="M62.6563 97.7344C62.6563 96.5047 61.6944 95.5078 60.5078 95.5078C59.3213 95.5078 58.3594 96.5047 58.3594 97.7344C58.3594 98.9641 59.3213 99.9609 60.5078 99.9609C61.6944 99.9609 62.6563 98.9641 62.6563 97.7344Z" fill="#C2440D"/>
<path d="M62.6563 85.2656C62.6563 84.0359 61.6944 83.0391 60.5078 83.0391C59.3213 83.0391 58.3594 84.0359 58.3594 85.2656C58.3594 86.4953 59.3213 87.4922 60.5078 87.4922C61.6944 87.4922 62.6563 86.4953 62.6563 85.2656Z" fill="#C2440D"/>
<path d="M66.3086 96.3984C68.0273 93.7266 68.0273 89.2734 66.3086 86.6016" stroke="#C2440D" stroke-width="3" stroke-linecap="round"/>
<path d="M63.943 114.995C63.1801 115.586 62.1324 115.586 61.3695 114.995L59.6424 113.656C57.9879 112.374 58.863 109.646 60.9292 109.646L64.3833 109.646C66.4494 109.646 67.3246 112.374 65.6701 113.656L63.943 114.995Z" fill="#F1F1EF"/>
<path d="M63.943 68.4506C63.1801 67.8592 62.1324 67.8592 61.3695 68.4506L59.6424 69.7892C57.9879 71.0717 58.863 73.7988 60.9292 73.7988L64.3833 73.7988C66.4494 73.7988 67.3246 71.0717 65.6701 69.7892L63.943 68.4506Z" fill="#F1F1EF"/>
<path d="M41.6147 96.5871L35.6336 91.8498L38.2381 88.538L35.5214 86.1409" stroke="#C2440D" stroke-width="3" stroke-linecap="round" stroke-linejoin="round"/>
<path d="M35.2359 82.4329C34.4973 81.0715 32.7993 80.5581 31.4321 81.3257C30.0648 82.0933 29.5866 83.8283 30.3252 85.1897C31.0638 86.5511 32.7618 87.0645 34.1291 86.2969C35.4964 85.5293 35.9745 83.7943 35.2359 82.4329Z" stroke="#C2440D" stroke-width="3"/>
<path d="M14.0414 69.4802C13.2868 69.0798 12.8207 68.2725 12.8513 67.4188L13.329 54.0808C13.3553 53.3472 13.7456 52.6883 14.3658 52.3303L27.0169 45.0261C27.6371 44.6681 28.4029 44.6595 29.0513 45.0036L40.8413 51.2588C41.5958 51.6592 42.0619 52.4665 42.0314 53.3202L41.5536 66.6582C41.5274 67.3918 41.1371 68.0507 40.5169 68.4088L27.8658 75.7129C27.2456 76.071 26.4798 76.0795 25.8313 75.7355L14.0414 69.4802Z" fill="#C2440D"/>
<path d="M13.8871 64.7802C12.9301 64.249 12.3259 63.2025 12.3444 62.1082L12.6332 45.009C12.6491 44.0685 13.1239 43.2323 13.8945 42.7874L29.6125 33.7126C30.3831 33.2677 31.3446 33.2746 32.167 33.7311L47.1198 42.0305C48.0768 42.5617 48.681 43.6083 48.6626 44.7027L48.3737 61.8019C48.3578 62.7424 47.8831 63.5786 47.1125 64.0235L31.3945 73.0983C30.6239 73.5432 29.6624 73.5362 28.8399 73.0797L13.8871 64.7802Z" fill="#354654"/>
<path d="M62.2468 58.4609C62.2585 59.8618 61.4812 61.2081 60.2622 61.8984L41.2146 72.6838C40.167 73.2769 38.9478 73.2961 37.9755 72.7347L18.1435 61.2847C17.1713 60.7234 16.5783 59.658 16.5682 58.4541L16.3848 36.5658C16.3731 35.1649 17.1503 33.8186 18.3694 33.1283L37.417 22.3429C38.4646 21.7496 39.6839 21.7304 40.6562 22.2918L60.4881 33.7418C61.4604 34.3031 62.0534 35.3686 62.0634 36.5725L62.2468 58.4609Z" fill="#C2440D"/>
<path d="M56.0492 41.5667L36.5462 30.3067C34.4342 29.0873 31.7504 29.7819 30.5517 31.8581L21.4359 47.6472C20.2372 49.7234 20.9775 52.3949 23.0895 53.6143L42.5925 64.8743C44.7045 66.0937 47.3884 65.3991 48.5871 63.3229L57.7029 47.5339C58.9016 45.4577 58.1612 42.7861 56.0492 41.5667Z" fill="#F1F1EF"/>
<path d="M34.4068 44.6099C35.4628 45.2196 36.8047 44.8723 37.4041 43.8342C38.0034 42.7961 37.6332 41.4603 36.5772 40.8506C35.5212 40.2409 34.1793 40.5882 33.58 41.6263C32.9806 42.6644 33.3508 44.0002 34.4068 44.6099Z" fill="#C2440D"/>
<path d="M45.1143 50.7919C46.1703 51.4016 47.5122 51.0543 48.1116 50.0162C48.7109 48.9781 48.3407 47.6423 47.2847 47.0326C46.2287 46.4229 44.8868 46.7702 44.2875 47.8083C43.6881 48.8464 44.0583 50.1822 45.1143 50.7919Z" fill="#C2440D"/>
<path d="M33.7092 48.4677C35.1355 51.2961 38.9596 53.504 42.1222 53.325" stroke="#C2440D" stroke-width="3" stroke-linecap="round"/>
<path d="M18.9345 37.178C18.812 36.2173 19.3412 35.3007 20.2344 34.9264L22.2564 34.0792C24.1935 33.2675 26.0933 35.3853 25.0497 37.1929L23.3049 40.2149C22.2613 42.0225 19.4773 41.4361 19.2117 39.3528L18.9345 37.178Z" fill="#F1F1EF"/>
<path d="M58.9042 60.2545C59.7974 59.8802 60.3266 58.9636 60.2041 58.0029L59.927 55.8283C59.6614 53.7449 56.8774 53.1585 55.8338 54.9661L54.089 57.9881C53.0454 59.7957 54.9452 61.9135 56.8823 61.1019L58.9042 60.2545Z" fill="#F1F1EF"/>
<path d="M46 26.2769L53.0932 23.4657L54.659 27.3772L58.0933 26.2231" stroke="#C2440D" stroke-width="3" stroke-linecap="round" stroke-linejoin="round"/>
<path d="M61.4473 27.8298C62.9956 27.8709 64.2892 26.6571 64.3081 25.0892C64.327 23.5213 63.0634 22.2397 61.5151 22.1986C59.9668 22.1575 58.6732 23.3714 58.6543 24.9393C58.6354 26.5071 59.8989 27.7888 61.4473 27.8298Z" stroke="#C2440D" stroke-width="3"/>
<path d="M68.199 63.7722C66.98 63.0819 66.2027 61.7356 66.2144 60.3347L66.3978 38.4464C66.4079 37.2425 67.0009 36.1771 67.9732 35.6158L87.8051 24.1658C88.7774 23.6044 89.9966 23.6236 91.0442 24.2168L110.092 35.0021C111.311 35.6924 112.088 37.0387 112.076 38.4396L111.893 60.328C111.883 61.5319 111.29 62.5974 110.318 63.1587L90.4858 74.6087C89.5135 75.1701 88.2943 75.1509 87.2466 74.5576L68.199 63.7722Z" fill="#C2440D"/>
<path d="M85.9287 66.8521L105.432 55.592C107.544 54.3726 108.284 51.7011 107.085 49.6249L97.9695 33.8358C96.7708 31.7596 94.087 31.065 91.975 32.2844L72.472 43.5444C70.36 44.7638 69.6196 47.4354 70.8183 49.5116L79.9341 65.3006C81.1328 67.3768 83.8167 68.0714 85.9287 66.8521Z" fill="#F1F1EF"/>
<path d="M94.1144 46.5876C93.0584 47.1973 92.6882 48.5331 93.2875 49.5712C93.8869 50.6093 95.2288 50.9566 96.2848 50.3469C97.3408 49.7372 97.711 48.4014 97.1116 47.3633C96.5123 46.3252 95.1704 45.9779 94.1144 46.5876Z" fill="#C2440D"/>
<path d="M83.4068 52.7696C82.3508 53.3793 81.9806 54.7151 82.58 55.7532C83.1793 56.7913 84.5213 57.1386 85.5773 56.5289C86.6333 55.9192 87.0035 54.5834 86.4041 53.5453C85.8048 52.5072 84.4628 52.1599 83.4068 52.7696Z" fill="#C2440D"/>
<path d="M91.1223 44.0545C87.9596 43.8755 84.1355 46.0834 82.7092 48.9118" stroke="#C2440D" stroke-width="3" stroke-linecap="round"/>
<path d="M108.287 36.9041C109.18 37.2784 109.709 38.195 109.587 39.1557L109.309 41.3304C109.044 43.4138 106.26 44.0002 105.216 42.1926L103.471 39.1706C102.428 37.3629 104.328 35.2452 106.265 36.0568L108.287 36.9041Z" fill="#F1F1EF"/>
<path d="M68.317 59.9806C68.1945 60.9413 68.7237 61.8579 69.6169 62.2322L71.6388 63.0795C73.5759 63.8912 75.4757 61.7734 74.4321 59.9658L72.6873 56.9438C71.6437 55.1362 68.8597 55.7226 68.5941 57.806L68.317 59.9806Z" fill="#F1F1EF"/>
<path d="M104 65.5L102.888 73.0484L98.7176 72.4487L98 76" stroke="#C2440D" stroke-width="3" stroke-linecap="round" stroke-linejoin="round"/>
<path d="M94.9315 78.1012C94.1218 79.4216 94.5262 81.1488 95.8746 81.9491C97.223 82.7494 98.9647 82.296 99.7744 80.9756C100.584 79.6553 100.18 77.9281 98.8313 77.1278C97.4829 76.3275 95.7412 76.7809 94.9315 78.1012Z" stroke="#C2440D" stroke-width="3"/>
</g>
<defs>
<clipPath id="clip0_0_1">
<rect width="128" height="128" fill="white"/>
</clipPath>
</defs>
</svg>
